<svg xmlns="http://www.w3.org/2000/svg" width="26.791" height="26.944" viewBox="0 0 26.791 26.944">
  <g id="Group_147" data-name="Group 147" transform="translate(-27.736 -27.708)">
    <path id="Path_28" data-name="Path 28" d="M15.472,2V6.042H11.43V8.736h4.042v4.042h2.694V8.736h4.042V6.042H18.167V2ZM2,3.347V6.042H4.694l4.421,9.136L7.641,18.167a2.644,2.644,0,0,0-.211,2.694A2.577,2.577,0,0,0,9.7,22.208H26.25V19.514s-16.182.016-16.167,0l1.347-2.694H23.555a1.1,1.1,0,0,0,1.137-.758L28.65,7.978a1.336,1.336,0,0,0-1.179-1.937h-.758l-4,8.083H11.43L6.5,3.347Zm8.083,20.208a2.694,2.694,0,1,0,2.694,2.694A2.693,2.693,0,0,0,10.083,23.555Zm13.472,0A2.694,2.694,0,1,0,26.25,26.25,2.693,2.693,0,0,0,23.555,23.555Z" transform="translate(25.736 25.708)" fill="#fff"/>
  </g>
</svg>
