<svg xmlns="http://www.w3.org/2000/svg" width="23.657" height="23.793" viewBox="0 0 23.657 23.793">
  <g id="icons8-add-shopping-cart" transform="translate(0)">
    <path id="Path_28" data-name="Path 28" d="M13.9,2V5.569H10.328V7.948H13.9v3.569h2.379V7.948h3.569V5.569H16.276V2ZM2,3.19V5.569H4.379l3.9,8.067-1.3,2.64A2.335,2.335,0,0,0,6.8,18.655,2.275,2.275,0,0,0,8.8,19.845h14.61V17.465s-14.29.014-14.276,0l1.19-2.379H21.034a.967.967,0,0,0,1-.669l3.495-7.138a1.18,1.18,0,0,0-1.041-1.71h-.669l-3.532,7.138H10.328L5.978,3.19ZM9.138,21.034a2.379,2.379,0,1,0,2.379,2.379A2.378,2.378,0,0,0,9.138,21.034Zm11.9,0a2.379,2.379,0,1,0,2.379,2.379A2.378,2.378,0,0,0,21.034,21.034Z" transform="translate(-2 -2)" fill="#4e5052"/>
  </g>
</svg>
