<svg xmlns="http://www.w3.org/2000/svg" width="186" height="158.1" viewBox="0 0 186 158.1">
  <g id="icons8-shipped" transform="translate(0 0)" opacity="0.124">
    <path id="Path_23" data-name="Path 23" d="M20.6,4A18.589,18.589,0,0,0,2,22.6V124.9a18.589,18.589,0,0,0,18.6,18.6h.581a23.114,23.114,0,0,0,45.337,0h56.963a23.114,23.114,0,0,0,45.337,0h.581A18.1,18.1,0,0,0,188,124.9V90.606a9.4,9.4,0,0,0-1.453-5.231L153.706,35.969a9.451,9.451,0,0,0-7.847-4.069H113.6V22.6A18.589,18.589,0,0,0,95,4ZM79.016,43.816,92.384,57.184,48.5,100.778,23.216,75.494,36.584,62.416,48.5,74.622ZM122.9,50.5h23.541l18.6,27.9H122.9ZM43.85,129.55a9.3,9.3,0,1,1-9.3,9.3A9.318,9.318,0,0,1,43.85,129.55Zm102.3,0a9.3,9.3,0,1,1-9.3,9.3A9.318,9.318,0,0,1,146.15,129.55Z" transform="translate(-2 -4)" fill="#ad7b38"/>
  </g>
</svg>
