<svg xmlns="http://www.w3.org/2000/svg" width="23.977" height="23.977" viewBox="0 0 23.977 23.977">
  <path id="calendar" d="M21.979,2.248H18.732V.749a.749.749,0,1,0-1.5,0v1.5h-4.5V.749a.749.749,0,1,0-1.5,0v1.5h-4.5V.749a.749.749,0,1,0-1.5,0v1.5H2a2,2,0,0,0-2,2V21.979a2,2,0,0,0,2,2H21.979a2,2,0,0,0,2-2V4.245a2,2,0,0,0-2-2Zm.5,19.731a.5.5,0,0,1-.5.5H2a.5.5,0,0,1-.5-.5V4.245a.5.5,0,0,1,.5-.5H5.245v1.5a.749.749,0,1,0,1.5,0v-1.5h4.5v1.5a.749.749,0,1,0,1.5,0v-1.5h4.5v1.5a.749.749,0,1,0,1.5,0v-1.5h3.247a.5.5,0,0,1,.5.5ZM5.245,8.991h3v2.248h-3Zm0,3.746h3v2.248h-3Zm0,3.746h3v2.248h-3Zm5.245,0h3v2.248h-3Zm0-3.746h3v2.248h-3Zm0-3.746h3v2.248h-3Zm5.245,7.493h3v2.248h-3Zm0-3.746h3v2.248h-3Zm0-3.746h3v2.248h-3Z" transform="translate(0 0)" fill="#8b8d8d" opacity="0.998"/>
</svg>
