<svg xmlns="http://www.w3.org/2000/svg" width="33.445" height="32.465" viewBox="0 0 33.445 32.465">
  <path id="Cart" d="M105.8,83.874H81.585L80.19,80.6a1.146,1.146,0,0,0-.792-.667l-4.492-1.057a1.145,1.145,0,0,0-.525,2.23l3.927.924,10.054,23.633a3.787,3.787,0,1,0,6.784.381h4.124a3.787,3.787,0,1,0,3.487-2.308l-12.718.018-1.569-3.687H105.8a1.145,1.145,0,0,0,1.145-1.145v-13.9A1.146,1.146,0,0,0,105.8,83.874Zm-3.038,22.149a1.5,1.5,0,1,1-1.5,1.5A1.5,1.5,0,0,1,102.76,106.023Zm-11.094,0a1.5,1.5,0,1,1-1.5,1.5A1.5,1.5,0,0,1,91.666,106.023Zm12.986-15.2H97.061a1.145,1.145,0,0,0,0,2.291h7.592v4.658H87.5L82.559,86.165h22.093Z" transform="translate(-73.499 -78.842)" fill="#fff"/>
</svg>
