<svg xmlns="http://www.w3.org/2000/svg" width="46.422" height="46.422" viewBox="0 0 46.422 46.422">
  <path id="ICON_4" data-name="ICON 4" d="M23.211,3.868A19.342,19.342,0,1,1,3.868,23.211,19.364,19.364,0,0,1,23.211,3.868Zm0-3.868A23.211,23.211,0,1,0,46.422,23.211,23.212,23.212,0,0,0,23.211,0Zm2.418,32.882a2.418,2.418,0,1,1-2.418-2.418A2.417,2.417,0,0,1,25.629,32.882Zm2.694-19.338A6.828,6.828,0,0,0,23.389,11.7c-4.217,0-6.944,3-6.944,7.64h3.89c0-2.874,1.6-3.894,2.975-3.894a2.557,2.557,0,0,1,2.638,2.371c.12,1.638-.754,2.47-1.861,3.522-2.731,2.6-2.781,3.855-2.77,6.708H25.2c-.025-1.284.058-2.327,1.808-4.213,1.31-1.412,2.938-3.168,2.971-5.845A6.055,6.055,0,0,0,28.323,13.544Z" transform="translate(0 0)" fill="#ad7b38"/>
</svg>
