<svg xmlns="http://www.w3.org/2000/svg" width="54.378" height="48.94" viewBox="0 0 54.378 48.94">
  <g id="ICON_1" data-name="ICON 1" transform="translate(0.001 0)">
    <path id="Path_2" data-name="Path 2" d="M41.917,24.47A12.237,12.237,0,1,0,54.378,36.705,12.353,12.353,0,0,0,41.917,24.47ZM26.886,44.491H0V0H49.847V21.948a17.089,17.089,0,0,0-4.532-1.593V4.449H29.455V17.8H20.392V4.449H4.532V40.042H25.263A16.38,16.38,0,0,0,26.886,44.491Zm13.638-6.54-2.853-2.629-2.18,2.2,5.075,4.745L49.1,33.738,46.879,31.58Z" fill="#ad7b38" fill-rule="evenodd"/>
    <path id="Path_3" data-name="Path 3" d="M6.486,19.059H11.63V20.5H6.486Z" transform="translate(3.36 7.661)" fill="#ad7b38"/>
    <path id="Path_4" data-name="Path 4" d="M6.486,23.294H11.63v1.439H6.486Z" transform="translate(3.36 9.363)" fill="#ad7b38"/>
  </g>
</svg>
