<svg id="deal" xmlns="http://www.w3.org/2000/svg" width="86" height="86" viewBox="0 0 86 86">
  <path id="Path_16" data-name="Path 16" d="M67.037,128.826a1.26,1.26,0,0,0-1.781,0L55.178,138.919a1.782,1.782,0,0,0,0,2.5l6.431,6.422a1.785,1.785,0,0,0,2.495,0l.332-.332a18.272,18.272,0,0,0,5.2,9.963c1.412,1.41,14.551,14.58,14.551,14.58a4.355,4.355,0,0,0,7.248-2.055,4.363,4.363,0,0,0,5.577-3.3,4.349,4.349,0,0,0,5.24-3.407,4.348,4.348,0,0,0,4.915-5.943,18.024,18.024,0,0,0,5.155-9.824l.319.319a1.785,1.785,0,0,0,2.494,0l6.435-6.425a1.771,1.771,0,0,0,0-2.491L104.771,122.1a1.767,1.767,0,0,0-2.495,0l-6.435,6.427a1.769,1.769,0,0,0-.342,2,19.777,19.777,0,0,0-6.706,1.444,19.233,19.233,0,0,0-7.454-1.681,1.78,1.78,0,0,0-.441-1.762L74.465,122.1a1.765,1.765,0,0,0-2.494,0L69.7,124.375a1.26,1.26,0,0,0,1.783,1.78l1.733-1.736,5.362,5.355L62.855,145.52l-5.361-5.354,9.544-9.558A1.26,1.26,0,0,0,67.037,128.826Zm38.548,26.526L89.723,139.491a1.269,1.269,0,0,0-1.655-.109,13.145,13.145,0,0,0-4.123,4.735c-1.1,2.1-1.943,2.266-2.492,2.2a1.244,1.244,0,0,1-.815-.719,3.358,3.358,0,0,1,.1-3.106,17.3,17.3,0,0,1,8.431-7.963,1.246,1.246,0,0,0,.134-.06,17.061,17.061,0,0,1,8.643-1.349l12.065,12.081A15.018,15.018,0,0,1,105.586,155.353Zm-2.064-30.936,15.726,15.749-5.363,5.354L98.159,129.772ZM78.487,141.364a5.864,5.864,0,0,0-.059,5.451,3.7,3.7,0,0,0,2.76,2.013c2.96.33,4.49-2.59,4.993-3.55l.01-.019a10.229,10.229,0,0,1,2.544-3.194l15.749,15.748a1.8,1.8,0,0,1-2.536,2.537L91.892,150.283a1.26,1.26,0,0,0-1.781,1.782l9.3,9.311a1.8,1.8,0,0,1-2.668,2.389L87.8,154.827a1.26,1.26,0,0,0-1.781,1.782l8.028,8.025c1.609,1.607-.939,4.133-2.55,2.522l-8.587-8.583a1.26,1.26,0,0,0-1.781,1.782l7.373,7.372a1.8,1.8,0,0,1-2.536,2.537s-8.7-8.735-14.551-14.581A15.68,15.68,0,0,1,66.742,145.2l12.382-12.4a22.514,22.514,0,0,1,6.65.7A19.656,19.656,0,0,0,78.487,141.364Z" transform="translate(-45.486 -101.163)" fill="#fff"/>
  <path id="Path_17" data-name="Path 17" d="M340.654,163.919a1.271,1.271,0,0,0-2.136.7,1.844,1.844,0,0,0,.853,1.583,1.274,1.274,0,0,0,2.141-.693C341.622,164.794,341.1,164.368,340.654,163.919Z" transform="translate(-281.646 -136.087)" fill="#fff"/>
  <path id="Path_18" data-name="Path 18" d="M73.406,12.594A43,43,0,0,0,12.594,73.406,42.719,42.719,0,0,0,43,86a43.291,43.291,0,0,0,9.032-.95,1.26,1.26,0,0,0-.527-2.464A40.77,40.77,0,0,1,43,83.48a40.481,40.481,0,0,1-28.624-69.1A40.48,40.48,0,0,1,83.48,43a40.1,40.1,0,0,1-4.059,17.689,1.26,1.26,0,0,0,2.266,1.1,43.033,43.033,0,0,0-8.281-49.2Z" transform="translate(0 0)" fill="#fff"/>
  <path id="Path_19" data-name="Path 19" d="M331.338,387.642l-15.683,15.684-5.949-5.949a1.26,1.26,0,0,0-1.781,1.781l6.84,6.84a1.26,1.26,0,0,0,1.781,0l16.574-16.574A1.26,1.26,0,0,0,331.338,387.642Z" transform="translate(-255.893 -322.221)" fill="#fff"/>
</svg>
