<svg xmlns="http://www.w3.org/2000/svg" width="67.5" height="90" viewBox="0 0 67.5 90">
  <path id="child" d="M21.094,12.656A12.656,12.656,0,1,1,33.75,25.313,12.656,12.656,0,0,1,21.094,12.656Zm44.759.241a5.625,5.625,0,0,0-7.955,0L42.67,28.125H24.83L9.6,12.9a5.625,5.625,0,0,0-7.955,7.955L18.281,37.486V84.375A5.625,5.625,0,0,0,23.906,90h2.813a5.625,5.625,0,0,0,5.625-5.625V64.688h2.813V84.375A5.625,5.625,0,0,0,40.781,90h2.812a5.625,5.625,0,0,0,5.625-5.625V37.486L65.853,20.852A5.625,5.625,0,0,0,65.853,12.9Z" transform="translate(0)" fill="#ad7b38"/>
</svg>
