<svg id="Group_36" data-name="Group 36" xmlns="http://www.w3.org/2000/svg" width="18" height="18" viewBox="0 0 18 18">
  <path id="Path_2471" data-name="Path 2471" d="M9,0A9,9,0,1,1,0,9,9,9,0,0,1,9,0Z" fill="#c9952e"/>
  <g id="Union_1" data-name="Union 1" transform="translate(10 13.243) rotate(-135)" fill="#fff">
    <path d="M 5.000400066375732 5.50029993057251 C 4.724259853363037 5.50029993057251 4.499599933624268 5.276050090789795 4.499599933624268 5.000400066375732 L 4.499599933624268 2.000699996948242 L 4.499599933624268 1.500699996948242 L 3.999599933624268 1.500699996948242 L 0.9998999834060669 1.500699996948242 C 0.7242499589920044 1.500699996948242 0.4999999701976776 1.276039958000183 0.4999999701976776 0.9998999834060669 C 0.4999999701976776 0.7242499589920044 0.7242499589920044 0.4999999701976776 0.9998999834060669 0.4999999701976776 L 5.000400066375732 0.4999999701976776 C 5.276050090789795 0.4999999701976776 5.50029993057251 0.7242499589920044 5.50029993057251 0.9998999834060669 L 5.50029993057251 5.000400066375732 C 5.50029993057251 5.276050090789795 5.276050090789795 5.50029993057251 5.000400066375732 5.50029993057251 Z" stroke="none"/>
    <path d="M 5.00029993057251 5.000298976898193 L 5.00029993057251 5.000400066375732 L 5.000400066375732 0.9999999403953552 L 0.9998999834060669 1.000699996948242 L 3.999599933624268 1.000699996948242 L 4.999599933624268 1.000699996948242 L 4.999599933624268 2.000699996948242 L 4.998839855194092 5.000229835510254 C 4.998849868774414 5.000229835510254 4.999300003051758 5.000295162200928 5.00029993057251 5.000298976898193 M 5.000400066375732 6.00029993057251 C 4.447800159454346 6.00029993057251 3.999599933624268 5.552999973297119 3.999599933624268 5.000400066375732 L 3.999599933624268 2.000699996948242 L 0.9998999834060669 2.000699996948242 C 0.4472999572753906 2.000699996948242 -3.471374654395731e-08 1.552500009536743 -3.471374654395731e-08 0.9998999834060669 C -3.471374654395731e-08 0.4481999576091766 0.4472999572753906 -3.471374654395731e-08 0.9998999834060669 -3.471374654395731e-08 L 5.000400066375732 -3.471374654395731e-08 C 5.55210018157959 -3.471374654395731e-08 6.00029993057251 0.4481999576091766 6.00029993057251 0.9998999834060669 L 6.00029993057251 5.000400066375732 C 6.00029993057251 5.552999973297119 5.55210018157959 6.00029993057251 5.000400066375732 6.00029993057251 Z" stroke="none" fill="#fff"/>
  </g>
</svg>
