<svg xmlns="http://www.w3.org/2000/svg" width="67.366" height="84.441" viewBox="0 0 67.366 84.441">
  <path id="Path_18" data-name="Path 18" d="M371.932,199.954H320.394c-4.118,0-8.117,4.181-8.117,8.3v63.054c0,4.119,3.328,8.693,7.446,8.693h3.493v1.6a2.814,2.814,0,0,0,2.855,2.795h3.41a2.8,2.8,0,0,0,2.834-2.795V280h27.293v1.6a2.8,2.8,0,0,0,2.835,2.795h3.409a2.813,2.813,0,0,0,2.855-2.795V280h3.277c4.116,0,7.662-4.574,7.662-8.693V208.287C379.644,204.168,376.049,199.954,371.932,199.954Zm-52.168,11.184v-2.605a2.261,2.261,0,0,1,2.29-2.292h8.061a2.291,2.291,0,0,1,2.327,2.292v2.605a2.351,2.351,0,0,1-2.327,2.361h-8.061A2.32,2.32,0,0,1,319.764,211.138Zm26.052,54.719a24.312,24.312,0,1,1,24.31-24.312A24.312,24.312,0,0,1,345.816,265.857Z" transform="translate(-312.277 -199.953)" fill="#fff"/>
</svg>
