<svg xmlns="http://www.w3.org/2000/svg" width="126.643" height="45" viewBox="0 0 126.643 45">
  <g id="Logo" transform="translate(99.481 -5.693)">
    <g id="Group_410" data-name="Group 410" transform="translate(-99.482 10.567)">
      <path id="Path_555" data-name="Path 555" d="M15.96,103.438a1.175,1.175,0,1,0-1.174-1.175A1.175,1.175,0,0,0,15.96,103.438Z" transform="translate(-11.075 -96.846)" fill="#4e5052"/>
      <path id="Path_556" data-name="Path 556" d="M10.315,110.332a5.365,5.365,0,0,0,4.1,1.22,5.125,5.125,0,0,0,3.511-2.087,4.472,4.472,0,0,0,.777-2.57v-6.022a2.73,2.73,0,0,1,.514-1.791,5.819,5.819,0,0,0-1.145-.044,1.84,1.84,0,0,0-1.835,1.983V106.9a2.814,2.814,0,0,1-1.19,2.1,3.452,3.452,0,0,1-3.759.1,3.063,3.063,0,0,1-1.425-2.511,4.056,4.056,0,0,1,.308-1.659,2.812,2.812,0,0,0,.4-1.014c-.015-.294-.147-.367-.353-.367a1.34,1.34,0,0,0-.925.573,3.771,3.771,0,0,0-.764,2.614A5.035,5.035,0,0,0,10.315,110.332Z" transform="translate(-8.518 -96.01)" fill="#4e5052"/>
      <path id="Path_557" data-name="Path 557" d="M139.872,143.622v-5.139c0-1.5-.383-2.457-1.9-2.952a4.151,4.151,0,0,0-3.973.989s-.049,0-.049-.431a.529.529,0,0,0-.51-.558h-.56c-.4,0-.741.332-.806,1.14v6.638l0,.089v2.123c0,.446.638.382.638.382h.719c.606,0,.606-.446.606-.446v-5.442a3.8,3.8,0,0,1,.74-2.138c.131-.329,1.468-1.58,2.362-1.357s.878,1.851.878,1.851v5.361a2.282,2.282,0,0,0,.574,1.836,2.393,2.393,0,0,0,1.837.335c.271,0-.113-.622-.336-1.117A3.327,3.327,0,0,1,139.872,143.622Z" transform="translate(-58.919 -110.822)" fill="#4e5052"/>
      <path id="Path_558" data-name="Path 558" d="M103.9,140.539V129.931s-.1-.911-.766-.979-1.129.34-1.192,1.15v3.537a3.379,3.379,0,0,0-2.608-.885c-1.788.054-3.976,1.077-4.542,4.341a5.87,5.87,0,0,0,2.407,6,4.54,4.54,0,0,0,3.776.145c1.021-.51,1.094-.766,1.094-.766a1.107,1.107,0,0,0,.673.9,1.637,1.637,0,0,0,1.452-.135S103.9,143.117,103.9,140.539Zm-4.444,1.907c-1.462,0-2.638-1.915-2.625-4.277s1.21-4.277,2.673-4.277,2.639,1.915,2.625,4.277S100.92,142.446,99.457,142.446Z" transform="translate(-43.668 -108.209)" fill="#4e5052"/>
      <path id="Path_559" data-name="Path 559" d="M16.334,130.886a1.618,1.618,0,0,0-1.963-1.069s-.613-.085-.95.739c-.238.815-.63,1.6-.774,2.077s-3.965,10.221-3.965,10.221-.311.639.223.639h1.181s.383.063.583-.471,1.731-4.437,1.731-4.437h4.636l1.676,4.277a2.761,2.761,0,0,1,.088.471c0,.144.111.144.191.144H20.81s.5-.049.112-.918S16.334,130.886,16.334,130.886ZM12.783,137.5l2.04-4.978,1.953,4.978Z" transform="translate(-8.548 -108.554)" fill="#4e5052"/>
      <path id="Path_560" data-name="Path 560" d="M144.289,108.379s-.522-.212-.522-1.876V97.48s-.011-1.111-.979-1.272a1.22,1.22,0,0,0-1.484,1.207v8.68A2.3,2.3,0,0,0,144.289,108.379Z" transform="translate(-62.683 -94.846)" fill="#4e5052"/>
      <path id="Path_561" data-name="Path 561" d="M103.148,111.158a3.1,3.1,0,0,0,1.714-2.675v-1.827a4.565,4.565,0,0,0,.914,1.255c.822.655,2.969.555,2.969.555H119.71c2.855,0,2.806-3.084,2.806-3.084V98.138a2.344,2.344,0,0,1,.571-1.664c-3.361-.555-3.017,2.137-3.017,2.137v5.89c0,2.007-1.324,1.975-1.324,1.975H107.6c-2.742,0-2.742-3.084-2.742-3.084v-2.121a2.176,2.176,0,0,1,.506-1.485,3.89,3.89,0,0,0-.686-.065,1.979,1.979,0,0,0-2.283,1.958v5.89c0,1.942-2.155,3.589-2.155,3.589A3.044,3.044,0,0,0,103.148,111.158Z" transform="translate(-45.934 -94.933)" fill="#4e5052"/>
      <path id="Path_562" data-name="Path 562" d="M86.072,135.672a2.914,2.914,0,0,0-2.386-2.777,4.459,4.459,0,0,0-3.557,1.149v-3.9s-.1-.911-.766-.979-1.127.34-1.192,1.149v10.468l0,.089V143c0,.446.639.382.639.382h.718c.607,0,.607-.446.607-.446v-5.442a3.549,3.549,0,0,1,.652-1.867,3.4,3.4,0,0,1,1.9-1.62c.558-.112,1.428.183,1.428,1.555v6.28a1.946,1.946,0,0,0,.854,1.5,1.7,1.7,0,0,0,1.731-.048,4.053,4.053,0,0,1-.629-1.971Z" transform="translate(-36.93 -108.297)" fill="#4e5052"/>
      <path id="Path_563" data-name="Path 563" d="M68.251,144.59a5.706,5.706,0,0,1-.159-1.58v-4.181a3.821,3.821,0,0,0-1.118-2.792,5.06,5.06,0,0,0-3.638-.606c-.882.186-2.346,1.053-1.835,1.34a.953.953,0,0,0,1.165-.065,2.544,2.544,0,0,1,2.346-.112,1.9,1.9,0,0,1,1.117,1.788v3.351a4.309,4.309,0,0,1-1.452,2.857,1.805,1.805,0,0,1-2.682-2.3c.446-.718,1.676-1.053,2.682-1.34a1.554,1.554,0,0,0,1.053-1.388s.088-.487-.223-.184a23.942,23.942,0,0,1-3.532,1.062c-1.06.335-2.928,1.874-1.819,3.806s2.789,1.97,4.154,1.891a3.038,3.038,0,0,0,2.059-.99,1.934,1.934,0,0,0,1.85.942c.893.033.639-.4.639-.4S68.73,145.675,68.251,144.59Z" transform="translate(-29.443 -110.816)" fill="#4e5052"/>
      <path id="Path_564" data-name="Path 564" d="M55.982,107.555a2.843,2.843,0,0,0,2.493-1.28l.021-.005a6.175,6.175,0,0,0,4.25,2.175,6.643,6.643,0,0,0,5.7-2.477,6.739,6.739,0,0,0,1.21-5.162c-.529-3.075-2.128-3.8-2.865-3.562a1.169,1.169,0,0,0-.487,1.712,5.453,5.453,0,0,1,1.072,3.3,4.5,4.5,0,0,1-3.2,4.1,4.45,4.45,0,0,1-2.364.044,4.5,4.5,0,0,1,.2-8.77s-.01,3.8-.01,5.072-1.748,1.686-1.748,1.686a.845.845,0,0,0,.12.214,2.258,2.258,0,0,0,2.8.8,2.292,2.292,0,0,0,1.309-2.15V95.41A1.762,1.762,0,0,1,65,93.949a4.1,4.1,0,0,0-2.058.285,1.723,1.723,0,0,0-.923,1.526A6.173,6.173,0,0,0,57.588,99a6.773,6.773,0,0,0-.131,5.761s.041.087.123.233l-.007.034a2.5,2.5,0,0,1-1.255.529H35.328s2.281-1.168,1.74-4.55a4.572,4.572,0,0,0-6.923-2.879,2.186,2.186,0,0,0-.889.914c-.057.123.082.352.424.18a3.469,3.469,0,0,1,3.263,0,3.189,3.189,0,0,1,1.738,2.415,4.084,4.084,0,0,1-.767,2.879c-1.06,1.143-1.8,1.061-1.8,1.061h-2.4a1.052,1.052,0,0,0-1.142.767.968.968,0,0,0,1,1.207H55.982Z" transform="translate(-16.682 -93.924)" fill="#4e5052"/>
      <path id="Path_565" data-name="Path 565" d="M118.713,135.282a4.475,4.475,0,0,0-4.554,2.83,7.472,7.472,0,0,0,0,5.319c1.341,3.309,5.107,3.128,6.256,1.969s.819-2.118.671-2.149-.713.819-.925,1.032a2.05,2.05,0,0,1-2.1.638,3.2,3.2,0,0,1-2.117-2.159,8.226,8.226,0,0,1,.117-4.319c.427-1.311,1.8-2.446,3.1-1.7s1.342,2.936,1.342,2.936a14.945,14.945,0,0,0-2.682.33,1.846,1.846,0,0,0-1.266,1.234c-.042.3.176.534.383.255.607-.819,4.756-.788,4.756-.788s.092,0,.107,0c.7.086.67-.479.67-.479a6.565,6.565,0,0,0-.564-2.872A4.208,4.208,0,0,0,118.713,135.282Z" transform="translate(-51.409 -110.785)" fill="#4e5052"/>
      <path id="Path_566" data-name="Path 566" d="M35.179,142.577c-.808.063-1.106-.149-1.106-.893V130.449s-.1-.911-.766-.979-1.128.34-1.192,1.149v10.469s-.015,2.017,1.277,2.447a2.552,2.552,0,0,0,2.532-.3C35.988,143.023,35.988,142.513,35.179,142.577Z" transform="translate(-18.144 -108.42)" fill="#4e5052"/>
      <path id="Path_567" data-name="Path 567" d="M51.272,143.058a2.265,2.265,0,0,1-.558-.67l-3.464-5.075a4.7,4.7,0,0,0,1.915-.447,3.338,3.338,0,0,0,1.724-3.081,3.774,3.774,0,0,0-1.34-3,5.668,5.668,0,0,0-3.175-1H42.287c-1.117,0-1.053.941-1.053.941v12.4c0,.448.638.383.638.383h.845c.607,0,.607-.446.607-.446V130.882h2.92a2.485,2.485,0,0,1,2.01,1.229,3.283,3.283,0,0,1-.063,3.08c-.718,1-1.787,1.053-2.84,1.165s-1.341.735-1.341.893.223,0,.782.288a2.55,2.55,0,0,1,.893.829s2.857,4.98,3.847,5.251a3.555,3.555,0,0,0,2.185-.112C51.879,143.393,51.543,143.217,51.272,143.058Z" transform="translate(-21.863 -108.55)" fill="#4e5052"/>
    </g>
    <g id="Group_411" data-name="Group 411" transform="translate(-14.851 5.694)">
      <path id="Path_568" data-name="Path 568" d="M112.124,76.24a1.391,1.391,0,0,0-.565-.56,1.513,1.513,0,0,0-1.487,0,1.4,1.4,0,0,0-.568.56,1.535,1.535,0,0,0-.2.759,1.519,1.519,0,0,0,.2.752,1.4,1.4,0,0,0,.56.561,1.526,1.526,0,0,0,1.507,0,1.406,1.406,0,0,0,.56-.561,1.526,1.526,0,0,0,0-1.511Zm-.215,1.385a1.185,1.185,0,0,1-.467.468,1.263,1.263,0,0,1-1.255,0,1.2,1.2,0,0,1-.468-.468,1.256,1.256,0,0,1,0-1.259,1.167,1.167,0,0,1,.472-.468,1.258,1.258,0,0,1,1.24,0,1.164,1.164,0,0,1,.473.468,1.266,1.266,0,0,1,0,1.259Z" transform="translate(-70.312 -34.162)" fill="#ad7b38"/>
      <path id="Path_569" data-name="Path 569" d="M111.765,77.506V77.5a.447.447,0,0,0,.319-.43.422.422,0,0,0-.133-.321.7.7,0,0,0-.493-.141,2.249,2.249,0,0,0-.42.038v1.667h.22v-.733h.205c.2.008.292.1.342.33a2.047,2.047,0,0,0,.111.4h.226a3.081,3.081,0,0,1-.127-.465A.431.431,0,0,0,111.765,77.506Zm-.282-.093h-.224V76.8a.87.87,0,0,1,.216-.021c.231,0,.389.1.389.314C111.864,77.285,111.715,77.413,111.482,77.413Z" transform="translate(-71.022 -34.62)" fill="#ad7b38"/>
      <path id="Path_570" data-name="Path 570" d="M52.013,45.963c-5.382.356-7.7,5.358-7.7,5.358a9.864,9.864,0,0,0,.19,8.389,8.985,8.985,0,0,0,6.453,4.725A2.508,2.508,0,0,0,52.3,66.659a5.955,5.955,0,0,0,3,.414,2.569,2.569,0,0,1-.745-2.128V53.531A3.337,3.337,0,0,0,52.644,50.4a3.287,3.287,0,0,0-4.082,1.171,1.261,1.261,0,0,0-.174.311s2.546.6,2.546,2.453.015,7.386.015,7.386a6.559,6.559,0,0,1-.284-12.77,6.492,6.492,0,0,1,8.1,6.027,7.935,7.935,0,0,1-1.56,4.8,1.7,1.7,0,0,0,.709,2.493c1.074.345,3.4-.709,4.175-5.187a9.823,9.823,0,0,0-1.764-7.52A9.672,9.672,0,0,0,52.013,45.963Z" transform="translate(-43.453 -22.11)" fill="#ad7b38"/>
      <path id="Path_571" data-name="Path 571" d="M89.913,26.841c5.383-.356,7.7-5.358,7.7-5.358a9.869,9.869,0,0,0-.191-8.39,8.989,8.989,0,0,0-6.453-4.724,2.509,2.509,0,0,0-1.346-2.223,5.961,5.961,0,0,0-3-.414,2.564,2.564,0,0,1,.744,2.127V19.272A3.337,3.337,0,0,0,89.283,22.4a3.285,3.285,0,0,0,4.081-1.171,1.326,1.326,0,0,0,.175-.311s-2.547-.6-2.547-2.455-.014-7.386-.014-7.386a6.741,6.741,0,0,1,5.046,4.969,6.678,6.678,0,0,1-4.763,7.8,6.5,6.5,0,0,1-8.1-6.029,7.937,7.937,0,0,1,1.56-4.8,1.7,1.7,0,0,0-.709-2.493c-1.075-.345-3.4.709-4.174,5.187a9.818,9.818,0,0,0,1.763,7.518A9.671,9.671,0,0,0,89.913,26.841Z" transform="translate(-58.237 -5.694)" fill="#ad7b38"/>
      <path id="Path_572" data-name="Path 572" d="M57.91,10.529a1.7,1.7,0,0,0-.709,2.493,7.933,7.933,0,0,1,1.56,4.8,6.495,6.495,0,0,1-8.1,6.029,6.677,6.677,0,0,1-4.762-7.8,6.74,6.74,0,0,1,5.046-4.969s-.015,5.533-.015,7.386-2.546,2.455-2.546,2.455a1.261,1.261,0,0,0,.174.311A3.287,3.287,0,0,0,52.644,22.4a3.338,3.338,0,0,0,1.907-3.132V7.858A2.563,2.563,0,0,1,55.3,5.731a5.962,5.962,0,0,0-3,.414,2.507,2.507,0,0,0-1.346,2.223A8.988,8.988,0,0,0,44.5,13.093a9.865,9.865,0,0,0-.19,8.39s2.32,5,7.7,5.358a9.671,9.671,0,0,0,8.308-3.608,9.822,9.822,0,0,0,1.764-7.518C61.313,11.237,58.984,10.183,57.91,10.529Z" transform="translate(-43.453 -5.694)" fill="#ad7b38"/>
      <path id="Path_573" data-name="Path 573" d="M97.426,59.71a9.868,9.868,0,0,0,.191-8.389s-2.322-5-7.7-5.358a9.671,9.671,0,0,0-8.308,3.606,9.82,9.82,0,0,0-1.763,7.52c.77,4.478,3.1,5.532,4.174,5.187a1.7,1.7,0,0,0,.709-2.493,7.939,7.939,0,0,1-1.56-4.8,6.493,6.493,0,0,1,8.1-6.027,6.559,6.559,0,0,1-.283,12.77s.014-5.531.014-7.386,2.547-2.453,2.547-2.453a1.326,1.326,0,0,0-.175-.311A3.285,3.285,0,0,0,89.283,50.4a3.336,3.336,0,0,0-1.907,3.131V64.945a2.57,2.57,0,0,1-.744,2.128,5.953,5.953,0,0,0,3-.414,2.509,2.509,0,0,0,1.346-2.223A8.986,8.986,0,0,0,97.426,59.71Z" transform="translate(-58.237 -22.11)" fill="#ad7b38"/>
    </g>
  </g>
</svg>
