<svg xmlns="http://www.w3.org/2000/svg" width="67.493" height="90" viewBox="0 0 67.493 90">
  <g id="Group_443" data-name="Group 443" transform="translate(-397.678 -2783)">
    <path id="receipt" d="M62.993.54,56.244,8.414,46.683.54a2.8,2.8,0,0,0-3.375,0L33.746,8.414,24.185.54a2.8,2.8,0,0,0-3.375,0L11.249,8.414,4.5.54A2.811,2.811,0,0,0,0,2.79V87.156a2.811,2.811,0,0,0,4.5,2.25l6.749-7.874,9.561,7.874a2.8,2.8,0,0,0,3.375,0l9.561-7.874,9.561,7.874a2.8,2.8,0,0,0,3.375,0l9.561-7.874,6.749,7.874a2.813,2.813,0,0,0,4.5-2.25V2.79a2.811,2.811,0,0,0-4.5-2.25ZM56.244,63.252a1.41,1.41,0,0,1-1.406,1.406H12.655a1.41,1.41,0,0,1-1.406-1.406V60.44a1.41,1.41,0,0,1,1.406-1.406H54.838a1.41,1.41,0,0,1,1.406,1.406Zm0-16.873a1.41,1.41,0,0,1-1.406,1.406H12.655a1.41,1.41,0,0,1-1.406-1.406V43.567a1.41,1.41,0,0,1,1.406-1.406H54.838a1.41,1.41,0,0,1,1.406,1.406Zm0-16.873a1.41,1.41,0,0,1-1.406,1.406H12.655a1.41,1.41,0,0,1-1.406-1.406V26.694a1.41,1.41,0,0,1,1.406-1.406H54.838a1.41,1.41,0,0,1,1.406,1.406Z" transform="translate(397.678 2783.028)" fill="#ad7b38" opacity="0.85"/>
  </g>
</svg>
