<svg xmlns="http://www.w3.org/2000/svg" width="14.201" height="19.5" viewBox="0 0 14.201 19.5">
  <path id="phone2" d="M12.633,14.7c-.018-.013-2.156-3.606-2.163-3.652-.442-.966-.8-1.953-.055-2.392L7.33,3.455c-.8.6-3.06,3.841,1.172,11.19,4.458,7.745,8.7,7.424,9.552,6.9l-3.006-5.077C14.337,16.885,13.738,16.2,12.633,14.7Zm7.483,4.872v0l-2.348-3.957a.657.657,0,0,0-.9-.23l-1.438.851,3.014,5.092s1.438-.846,1.438-.849h0A.655.655,0,0,0,20.116,19.573Zm-7.87-12v0a.652.652,0,0,0,.231-.9v0S10.063,2.6,10.062,2.6a.655.655,0,0,0-.9-.23L7.726,3.22l3.081,5.2s1.438-.845,1.438-.847Z" transform="translate(-6.007 -2.278)" fill="#8b8d8d"/>
</svg>
