<svg xmlns="http://www.w3.org/2000/svg" width="54.378" height="45.315" viewBox="0 0 54.378 45.315">
  <path id="ICON_2" data-name="ICON 2" d="M37.236,39.848a19.593,19.593,0,0,0,3.555-1.664l2.694,3.491a24.169,24.169,0,0,1-5.161,2.389ZM14.34,32.46l-2.719,3.83a23.4,23.4,0,0,0,3.231,3.293L17.3,35.9A18.612,18.612,0,0,1,14.34,32.46ZM11.675,19.42c1.611-8.571,9.457-15.1,18.912-15.1,10.62,0,19.259,8.228,19.259,18.341a17.842,17.842,0,0,1-5.519,12.828L47.039,39a22.071,22.071,0,0,0,7.339-16.339C54.378,10.146,43.722,0,30.588,0,18.606,0,8.725,8.446,7.076,19.42H0L9.063,32.188,18.126,19.42ZM24.692,40.079A19.549,19.549,0,0,1,20.936,38.5l-2.413,3.632A24.153,24.153,0,0,0,23.51,44.25Zm8.139.785a14.91,14.91,0,0,1-3.677.045l-1.208,4.255a22.918,22.918,0,0,0,5.973-.1Z" transform="translate(0 0)" fill="#ad7b38"/>
</svg>
