<svg xmlns="http://www.w3.org/2000/svg" width="87.881" height="87.883" viewBox="0 0 87.881 87.883">
  <path id="cogs" d="M31.213,61.969l3.546-4.963-3.883-3.883-4.963,3.546a13.721,13.721,0,0,0-2.941-1.219l-1-6.015H16.476l-1,6.015a13.582,13.582,0,0,0-2.941,1.219L7.57,53.123,3.687,57.006l3.546,4.963A13.574,13.574,0,0,0,6.016,64.91L0,65.913v5.493l6.015,1a13.582,13.582,0,0,0,1.219,2.941L3.689,80.312,7.573,84.2l4.963-3.546a13.721,13.721,0,0,0,2.941,1.219l1,6.015h5.493l1-6.015a13.582,13.582,0,0,0,2.941-1.219L30.878,84.2l3.883-3.883-3.546-4.963a13.721,13.721,0,0,0,1.219-2.941l6.015-1V65.913l-6.015-1a13.582,13.582,0,0,0-1.219-2.941ZM19.223,74.152a5.493,5.493,0,1,1,5.493-5.493A5.491,5.491,0,0,1,19.223,74.152Zm68.659-41.2V27.464L82.1,26.412q-.161-1.034-.406-2.041l4.941-3.183-2.1-5.075-5.745,1.241q-.544-.89-1.159-1.727l3.348-4.836L77.091,6.907l-4.836,3.348q-.836-.614-1.727-1.159l1.241-5.745-5.075-2.1L63.51,6.19c-.67-.162-1.351-.3-2.041-.406L60.418,0H54.925L53.874,5.784q-1.034.161-2.041.406L48.65,1.25l-5.075,2.1L44.816,9.1q-.89.544-1.727,1.159L38.252,6.907,34.369,10.79l3.348,4.836q-.614.836-1.159,1.727l-5.745-1.241-2.1,5.075,4.941,3.183c-.162.67-.3,1.351-.406,2.041l-5.784,1.052v5.493l5.784,1.052q.161,1.034.406,2.041l-4.941,3.183,2.1,5.075,5.745-1.241q.544.89,1.159,1.727l-3.348,4.836,3.883,3.883,4.836-3.348q.836.614,1.727,1.159l-1.241,5.745,5.075,2.1,3.183-4.941c.67.162,1.351.3,2.041.406l1.052,5.784h5.493l1.052-5.784q1.034-.161,2.041-.406l3.183,4.941,5.075-2.1-1.241-5.745q.89-.544,1.727-1.159l4.836,3.348,3.883-3.883-3.348-4.836q.614-.836,1.159-1.727l5.745,1.241,2.1-5.075-4.941-3.183c.162-.67.3-1.351.406-2.041l5.784-1.052Zm-30.21,9.2A11.947,11.947,0,1,1,69.618,30.21,11.948,11.948,0,0,1,57.672,42.157Z" transform="translate(-0.001 -0.001)" fill="#fff"/>
</svg>
