<svg xmlns="http://www.w3.org/2000/svg" width="90.172" height="83.623" viewBox="0 0 90.172 83.623">
  <g id="Group_26" data-name="Group 26" transform="translate(0 0.001)">
    <path id="Path_14" data-name="Path 14" d="M592.978,332.69v12.9h1.581c2.977,0,5.39-2.887,5.39-6.449s-2.413-6.449-5.39-6.449Z" transform="translate(-509.777 -323.024)" fill="#fff"/>
    <path id="Path_15" data-name="Path 15" d="M557.976,388.182c-4.329,0-7.8-4.086-7.8-9.265V344.358h-8.617v48.3c0,2.574,1.711,4.549,3.865,4.549h39.06c2.151,0,3.931-1.975,3.931-4.549v-4.473Z" transform="translate(-524.904 -313.581)" fill="#fff"/>
    <path id="Path_16" data-name="Path 16" d="M553.158,338.46c0-3.123-2.148-5.77-4.759-5.77H534.814c-2.975,0-5.386,2.886-5.386,6.446s2.412,6.443,5.386,6.443H548.4c2.611,0,4.759-2.418,4.759-5.542Z" transform="translate(-529.428 -323.024)" fill="#fff"/>
    <path id="Path_17" data-name="Path 17" d="M545.3,326.209c-2.084,0-3.771,1.933-3.771,4.512h2.7c5.649,0,10.261,5.591,10.261,12.352v44.966c0,2.576,1.711,4.55,3.862,4.55h39.058c2.152,0,3.933-1.975,3.933-4.55v-52.35c0-5.174-3.537-9.479-7.86-9.479Z" transform="translate(-522.448 -326.209)" fill="#fff"/>
  </g>
</svg>
