<svg xmlns="http://www.w3.org/2000/svg" width="91.355" height="100.518" viewBox="0 0 91.355 100.518">
  <g id="Group_143" data-name="Group 143" transform="translate(0.001 0)">
    <g id="icons8-buying">
      <path id="Path_30" data-name="Path 30" d="M47.69,0,33.983,13.707H56.827ZM70.534,4.569,61.4,13.707H79.672ZM2,9.138v9.138H12.423l11.994,35.7-6.853,9.138H17.42a9.513,9.513,0,0,0-.714,9.709,9.23,9.23,0,0,0,8.138,4.855h59.4V68.535h-59.4c.018-.018-.054-.071,0-.143l6.853-9H74.675a4.028,4.028,0,0,0,4.141-2.713L92.951,24.7a4.54,4.54,0,0,0-4.141-6.425H21.989l-2-6-1-3.141Zm22.845,73.1a9.138,9.138,0,1,0,9.138,9.138A9.133,9.133,0,0,0,24.845,82.242Zm50.258,0a9.138,9.138,0,1,0,9.138,9.138A9.133,9.133,0,0,0,75.1,82.242Z" transform="translate(-2)" fill="#fff"/>
      <path id="Path_2468" data-name="Path 2468" d="M2,4.455v9.138H12.423l11.994,35.7-6.853,9.138H17.42a9.513,9.513,0,0,0-.714,9.709,9.23,9.23,0,0,0,8.138,4.855h59.4V63.851h-59.4c.018-.018-.054-.071,0-.143l6.853-9H74.675A4.028,4.028,0,0,0,78.816,52L92.951,20.018a4.54,4.54,0,0,0-4.141-6.425H21.989l-2-6-1-3.141Zm22.845,73.1A9.138,9.138,0,1,0,33.983,86.7,9.133,9.133,0,0,0,24.845,77.558Zm50.258,0A9.138,9.138,0,1,0,84.241,86.7,9.133,9.133,0,0,0,75.1,77.558Z" transform="translate(-2 4.683)" fill="#fff"/>
    </g>
  </g>
</svg>
