<svg xmlns="http://www.w3.org/2000/svg" width="27.045" height="27.045" viewBox="0 0 27.045 27.045">
  <path id="support" d="M11.409,24.932a2.113,2.113,0,0,1,3.961-1.023v-.033h3.223a1.059,1.059,0,0,0,1.056-1.056V11.779a1.055,1.055,0,0,1,1.056-1.056h2.113a4.23,4.23,0,0,1,4.226,4.225V18.54a4.23,4.23,0,0,1-4.226,4.226H21.763v.053a3.172,3.172,0,0,1-3.169,3.169H15.371v-.034a2.113,2.113,0,0,1-3.961-1.022ZM4.226,22.765A4.229,4.229,0,0,1,0,18.54V14.949A4.228,4.228,0,0,1,2.114,11.29a11.411,11.411,0,0,1,22.112-3.84,1.056,1.056,0,1,1-1.981.734A9.3,9.3,0,0,0,4.251,10.723H6.338a1.055,1.055,0,0,1,1.056,1.056v9.93a1.055,1.055,0,0,1-1.056,1.056Z" transform="translate(0 -0.002)" fill="#8b8d8d"/>
</svg>
