<svg xmlns="http://www.w3.org/2000/svg" width="20" height="20" viewBox="0 0 20 20">
  <path id="support" d="M8.438,18.437a1.563,1.563,0,0,1,2.93-.757v-.024H13.75a.783.783,0,0,0,.781-.781V8.711a.78.78,0,0,1,.781-.781h1.562A3.128,3.128,0,0,1,20,11.055v2.656a3.128,3.128,0,0,1-3.125,3.125h-.781v.04a2.346,2.346,0,0,1-2.344,2.344H11.367v-.025a1.562,1.562,0,0,1-2.93-.756Zm7.656-4.375v1.211h.781a1.565,1.565,0,0,0,1.563-1.562V11.055a1.564,1.564,0,0,0-1.562-1.562h-.781ZM3.125,16.835A3.128,3.128,0,0,1,0,13.711V11.055A3.127,3.127,0,0,1,1.563,8.349,8.439,8.439,0,0,1,17.915,5.51a.781.781,0,1,1-1.465.543A6.876,6.876,0,0,0,3.144,7.93H4.687a.78.78,0,0,1,.781.781v7.343a.78.78,0,0,1-.781.781ZM1.563,11.055v2.656a1.564,1.564,0,0,0,1.562,1.562h.781V9.492H3.125A1.564,1.564,0,0,0,1.563,11.055Z" transform="translate(0 0)" fill="#c9952e"/>
</svg>
